<?xml version="1.0" standalone="no"?>
<!DOCTYPE svg PUBLIC "-//W3C//DTD SVG 20010904//EN"
 "http://www.w3.org/TR/2001/REC-SVG-20010904/DTD/svg10.dtd">
<svg version="1.0" xmlns="http://www.w3.org/2000/svg"
 width="752.000000pt" height="693.000000pt" viewBox="0 0 752.000000 693.000000"
 preserveAspectRatio="xMidYMid meet">

<g transform="translate(0.000000,693.000000) scale(0.100000,-0.100000)"
fill="#000000" stroke="none">
<path d="M3757 4128 c-3 -996 -4 -1077 -21 -1133 -37 -123 -74 -168 -171 -204
-72 -27 -199 -29 -270 -4 -63 22 -148 104 -175 169 -24 54 -50 195 -50 265 0
59 29 57 -305 27 l-250 -22 8 -110 c30 -434 230 -709 582 -803 128 -34 382
-43 522 -18 416 74 652 337 703 780 6 55 10 480 10 1108 l0 1017 -290 0 -289
0 -4 -1072z"/>
</g>
</svg>
